<?xml version="1.0" encoding="utf-8"?>
<!-- Generator: Adobe Illustrator 28.0.0, SVG Export Plug-In . SVG Version: 6.00 Build 0)  -->
<svg version="1.0" id="katman_1" xmlns="http://www.w3.org/2000/svg" xmlns:xlink="http://www.w3.org/1999/xlink" x="0px" y="0px"
	 viewBox="0 0 722.36 629.61" style="enable-background:new 0 0 722.36 629.61;" xml:space="preserve">
<style type="text/css">
	.st0{fill:#1D1D1B;}
</style>
<path class="st0" d="M248.92,174.26c-68.45-1.19-137.01-0.58-205.47-0.58c-4.13,0-8.06,0.13-11.08-3.12
	c-3.29-3.54-3.05-8.8-0.27-12.69c2.5-3.48,6.01-3.47,9.85-3.47c113.32,0.08,198.15,0.12,254.5,0.13c5.21,0,10.41-2.83,8.75-8.9
	c-0.81-2.93-2.97-4.39-6.5-4.38c-26.41,0.03-52.83,0.01-79.25-0.08c-31.51-0.11-61.47-13.5-77.22-41.76
	c-1.46-2.62-2.37-5.34-2.97-8.18c-0.13-0.62,0.36-1.19,0.99-1.14c0.17,0.01,0.42,0.05,0.75,0.11c0.25,0.04,0.49,0.13,0.72,0.27
	c28.18,16.69,63.39,19.85,92.71,4.73c11.47-5.92,22.96-10.91,36.31-12.64c4.34-0.56,10.99-0.84,19.96-0.84
	c33.59,0.03,67.17,0.03,100.75,0.02c2.31,0,4.19-0.9,5.62-2.71c4.11-5.16-0.27-10.82-6.38-10.79c-11.44,0.07-20.1,0.02-25.97-0.15
	c-32.19-0.92-55.63-15.41-70.31-43.48c-1.44-2.76-2.63-5.8-3.57-9.11c-0.31-1.12,0.1-1.81,1.23-2.06c0.21-0.05,0.66,0.17,1.34,0.65
	c25.55,17.98,59.64,26.48,88.46,12.58c17.45-8.43,33.89-13.3,52.89-11.54c23.34,2.17,44.76,13.17,60.57,30.52
	c0.21,0.23,0.57,0.24,0.8,0.03c15.85-14.74,32.39-28.45,49.63-41.14c2.71-1.99,5.82-3.39,9.34-4.18
	c12.75-2.87,12.12,12.35,11.3,19.91c-0.04,0.38,0.1,0.47,0.43,0.27c8.34-5.02,17.2-9.02,26.57-11.99c0.76-0.24,1.32-0.02,1.68,0.65
	c0.11,0.22,0.13,0.47,0.06,0.69l-22.85,71.98c-0.25,0.78-0.04,1.64,0.54,2.22c46.1,46.16,92.1,92.25,137.99,138.28
	c8.78,8.8,11.52,20.13,11.54,32.11c0.03,19.49-6.36,36.31-19.19,50.48c-16.33,18.04-40.71,24.78-63.66,15.42
	c-15.95-6.5-26.63-20.13-33.6-35.79c-0.13-0.31-0.46-0.62-0.99-0.94c-0.32-0.19-0.73-0.36-1.24-0.5c-10.9-3.01-21.81-6-32.72-8.95
	c-0.82-0.22-2.5-0.87-5.04-1.95c-0.32-0.13-0.63-0.12-0.94,0.03c-18.41,8.92-41.66,8.62-60.98,2.68c-0.29-0.09-0.6,0.08-0.68,0.37
	c-10.48,36.54-10.68,74.06-2.96,111.14c3.51,16.85,7.94,33.44,13.3,49.79c10.17,31.02,22.25,62.93,26.37,95.45
	c0.06,0.45,0.44,0.78,0.89,0.78c50.35-0.07,100.78-0.07,151.27-0.02c3.9,0.01,6.7,0.34,8.39,1.01c8.22,3.23,10.33,14.25,3.96,20.36
	c-2.67,2.56-6.03,3.83-10.09,3.82c-51.15-0.1-102.3-0.15-153.45-0.16c-0.36,0-0.57,0.18-0.63,0.53c-0.29,1.67-0.56,3.32-0.81,4.94
	c-5.04,33.31-29.95,60.56-63.6,65.64c-7.2,1.09-15.3,0.98-23.3,0.98c-132.82-0.01-265.64-0.01-398.46,0.02
	c-11.08,0-22.16-0.13-33.24-0.38c-23.51-0.54-28.94-32.8-6.53-41.35c1.75-0.67,5.01-1,9.77-1c214.58-0.04,360.16-0.09,436.75-0.14
	c4.99,0,10.87-0.49,15.43-2.26c11.3-4.41,19.99-14.76,23.85-26.24c0.12-0.35-0.15-0.72-0.52-0.72c-159.47-0.01-319.07-0.01-478.8,0
	c-5.45,0-9.21-0.42-11.26-1.25c-6.7-2.69-9.1-11.18-5.66-17.46c2.79-5.09,8.11-6.27,13.96-6.28c151.59-0.05,303.17-0.09,454.75-0.11
	c6.06,0,14.94-1.03,14.18-9.17c-0.66-7.02-6.63-8.16-12.68-8.15c-145.64,0.18-291.28,0.27-436.92,0.27
	c-7.23,0-18.66,0.57-25.33-0.07c-6.27-0.6-10.72-8.06-8.85-13.82c2.27-6.95,7.82-7.11,14.6-7.12
	c157.09-0.17,314.32-0.21,471.71-0.14c0.69,0,0.91-0.32,0.68-0.97c-1.82-4.99-3.91-10.04-6.28-15.15
	c-7.21-15.55-14.04-31.26-20.5-47.13c-24.05-59.12-34.06-126.7-9.82-187.28c0.27-0.67,0.2-1.31-0.21-1.9
	c-13.02-18.92-20.03-40.44-17.65-63.55c0.37-3.59,1.47-8.67,3.3-15.24c2.24-8.02,10.07-13.36,18.04-9.06
	c4.65,2.51,5.66,7.19,5.88,12.62c0.16,3.97,0.3,7.95,0.41,11.93c1.26,43.82,37.55,76.65,81.72,69.61
	c6.46-1.03,12.53-3.17,18.22-6.43c0.89-0.51,2.06-0.57,3.51-0.18c13.47,3.61,26.88,7.45,40.23,11.5c6.83,2.08,12.51,5.05,17.06,8.92
	c3.62,3.08,8.66,8.2,10.6,12.45c4.51,9.87,6.91,16.94,18.05,21.06c24.74,9.16,43.25-19.56,41.92-41.09
	c-0.48-7.78-3.91-12.38-9.23-17.73c-57.12-57.34-93.54-93.67-109.27-108.98c-18.8-18.31-32.58-31.95-41.34-40.91
	c-0.49-0.51-1.32-1.54-2.49-3.1c-0.2-0.27-0.29-0.57-0.27-0.9c0.16-2.33,0.31-3.91,0.46-4.73c3.36-18.23,6.54-31.19,10.01-44.21
	c0.19-0.72,0-0.84-0.58-0.37c-12.7,10.39-24.45,21.73-35.24,34c-5.25,5.97-9.61,12.51-13.09,19.64c-0.13,0.27-0.5,0.55-1.11,0.86
	c-0.35,0.17-0.77,0.32-1.28,0.44c-84.3,19.11-154.47,77.11-205.84,145.25c-16.65,22.08-31.51,45.3-44.6,69.67
	c-0.18,0.33,0.06,0.74,0.44,0.74c28.12-0.04,56.29-0.06,84.52-0.07c6.49,0,10.96,0.44,13.42,1.33c11.4,4.12,16.2,18.34,8.92,28.52
	c-4.02,5.61-9.79,8.42-17.3,8.41c-102.67-0.1-205.33-0.17-308-0.2c-1.67,0-3.35-0.04-5.02-0.11c-11.69-0.53-19.53-11.3-17.1-22.48
	c2-9.21,10.53-15.27,19.87-15.31c53.25-0.27,106.5-0.47,159.75-0.61c4.8-0.01,9.32-4.12,8-9.1c-1.28-4.8-5.75-5.01-9.96-4.98
	c-26.01,0.15-52.03,0.15-78.04-0.02c-18.71-0.12-36.76-4.14-51.34-15.79c-4.12-3.29-12.43-11.89-11.97-17.57
	c0.07-0.9,1.01-1.45,1.83-1.08c23.17,10.63,52.7,16.01,77.65,9.98c15.49-3.75,27.44-13.88,41.77-19.92
	c10.18-4.29,20.45-6.68,30.81-7.17c8.59-0.4,21.84-0.51,39.75-0.32c4.04,0.04,8.5-3.21,8.39-7.59c-0.11-4.53-4.6-6.83-8.89-6.83
	c-63.42,0.09-126.83-0.46-190.25-0.32c-8.65,0.02-16.09-8.61-10.46-16.7c3.41-4.9,9.16-4.76,15.46-4.75
	c37.72,0.02,75.44-0.09,113.15-0.33c8.29-0.05,16.41-0.1,23.85-1.51c12.4-2.35,22.76-7.85,37.15-15.09
	c9.21-4.63,19.83-7.84,31.85-9.63c0.15-0.03,0.22-0.11,0.21-0.26v-0.01C249.15,174.34,249.07,174.26,248.92,174.26z"/>
<path class="st0" d="M567.19,139.29c10.45,4.72,11.1,14.97,8.45,24.78c-0.21,0.78-0.89,1.35-1.7,1.4c-8.69,0.6-17.11,0.31-23.5-5.44
	c-3.62-3.25-13.78-12.89-14.31-17.59c-0.04-0.32,0.04-0.65,0.23-0.91C541.61,134.09,560.35,136.2,567.19,139.29z"/>
<path class="st0" d="M362.5,389.5c0,10.03-8.13,18.16-18.16,18.16H18.2c-10.03,0-18.16-8.13-18.16-18.16v-0.42
	c0-10.03,8.13-18.16,18.16-18.16h326.14c10.03,0,18.16,8.13,18.16,18.16V389.5z"/>
<path class="st0" d="M710.13,392.66c0,9.3-7.54,16.84-16.84,16.84H559.31c-9.3,0-16.84-7.54-16.84-16.84v-0.74
	c0-9.3,7.54-16.84,16.84-16.84h133.98c9.3,0,16.84,7.54,16.84,16.84V392.66z"/>
<path class="st0" d="M414.08,454.07c0,9.87-8.01,17.88-17.88,17.88H17.88C8.01,471.95,0,463.94,0,454.07v-0.34
	c0-9.87,8.01-17.88,17.88-17.88H396.2c9.87,0,17.88,8.01,17.88,17.88V454.07z"/>
<path class="st0" d="M710.31,455.36c0,9.39-7.62,17.01-17.01,17.01H577.98c-9.39,0-17.01-7.62-17.01-17.01v-0.86
	c0-9.39,7.62-17.01,17.01-17.01H693.3c9.39,0,17.01,7.62,17.01,17.01V455.36z"/>
<path class="st0" d="M707.93,505.26c0,5.58-4.53,10.11-10.11,10.11H563.1c-5.58,0-10.11-4.53-10.11-10.11v-0.4
	c0-5.58,4.53-10.11,10.11-10.11h134.72c5.58,0,10.11,4.53,10.11,10.11V505.26z"/>
<path class="st0" d="M706.72,595.81c0,5.99-4.86,10.85-10.85,10.85h-83.02c-5.99,0-10.85-4.86-10.85-10.85v-0.54
	c0-5.99,4.86-10.85,10.85-10.85h83.02c5.99,0,10.85,4.86,10.85,10.85V595.81z"/>
</svg>
